<svg width="25" height="24" viewBox="0 0 25 24" fill="none" xmlns="http://www.w3.org/2000/svg">
<g clip-path="url(#clip0_1448_1906)">
<path d="M12.5 17C16.162 17 19.365 18.575 21.107 20.925L19.265 21.796C17.847 20.116 15.347 19 12.5 19C9.65304 19 7.15304 20.116 5.73504 21.796L3.89404 20.924C5.63604 18.574 8.83804 17 12.5 17ZM12.5 2C13.8261 2 15.0979 2.52678 16.0356 3.46447C16.9733 4.40215 17.5 5.67392 17.5 7V10C17.5 11.2885 17.0025 12.5272 16.1114 13.4578C15.2203 14.3884 14.0043 14.9391 12.717 14.995L12.5 15C11.174 15 9.90219 14.4732 8.96451 13.5355C8.02683 12.5979 7.50004 11.3261 7.50004 10V7C7.50012 5.71154 7.99758 4.47284 8.8887 3.54222C9.77982 2.61161 10.9958 2.06092 12.283 2.005L12.5 2ZM12.5 4C11.7348 3.99996 10.9985 4.29233 10.4418 4.81728C9.88504 5.34224 9.54994 6.06011 9.50504 6.824L9.50004 7V10C9.49929 10.7809 9.80306 11.5313 10.3468 12.0918C10.8906 12.6523 11.6314 12.9787 12.412 13.0016C13.1926 13.0245 13.9513 12.7422 14.527 12.2145C15.1027 11.6869 15.45 10.9556 15.495 10.176L15.5 10V7C15.5 6.20435 15.184 5.44129 14.6214 4.87868C14.0588 4.31607 13.2957 4 12.5 4Z" fill="#6B7280"/>
</g>
<defs>
<clipPath id="clip0_1448_1906">
<rect width="24" height="24" fill="white" transform="translate(0.5)"/>
</clipPath>
</defs>
</svg>
